<?xml version='1.0' encoding='utf-8'?>
<svg xmlns:xlink="http://www.w3.org/1999/xlink" xmlns="http://www.w3.org/2000/svg" viewBox="0 0 64 64"> <defs> <linearGradient id="a"> <stop stop-color="#6cbb73" offset="0"/> <stop stop-color="#7ccf83" offset="1"/> </linearGradient> <linearGradient id="g" x1="30.657" x2="34.557" gradientUnits="userSpaceOnUse"> <stop offset="0"/> <stop stop-color="#797979" offset="1"/> </linearGradient> <linearGradient id="f" x1="5.0754" x2="7.2079" gradientUnits="userSpaceOnUse"> <stop stop-color="#fff" offset="0"/> <stop stop-color="#919191" offset="1"/> </linearGradient> <linearGradient id="d" x1="-.22188" x2="63.861" gradientUnits="userSpaceOnUse"> <stop stop-color="#28292b" offset="0"/> <stop stop-color="#1a2334" offset="1"/> </linearGradient> <linearGradient id="c" x1="17.325" x2="48.185" gradientUnits="userSpaceOnUse"> <stop offset="0"/> <stop stop-color="#383838" offset=".76855"/> <stop stop-color="#262626" offset=".9143"/> <stop offset="1"/> </linearGradient> <linearGradient id="e" x1="10.9" x2="13.311" gradientUnits="userSpaceOnUse" xlink:href="#a"/> <radialGradient id="b" cx="242.94" cy="408.9" r="11.617" gradientUnits="userSpaceOnUse" xlink:href="#a"/> </defs> <path d="m17.445 21.081h28.997l1.6225 15.164c-0.20656 2.5875-0.30578 2.6714-1.831 3.8221-1.8757 1.1141-4.1482 1.7029-6.2169 2.1231-5.1897 1.0541-10.923 1.047-17.841-1.2753-2.2548-0.70879-3.26-3.8179-3.1076-5.0951l-1.6225-14.739z" fill="url(#c)" stroke="#d3d3d3" stroke-width=".24053"/> <path d="m-0.15506 22.684 31.307-6.8722 32.643 6.2995-31.497 12.026-32.452-11.454z" fill="url(#d)"/> <path d="m11.692 37.135 1.7207-0.04595c0.97305 3.955 2.7499 9.4518 2.2086 10.347-0.69102 1.4752-3.9523 2.0979-4.7212 0.41528 0.04438-3.1816 0.92179-6.4808 0.79197-10.717z" fill="url(#e)"/> <path d="m34.557 21.662c-1.1329 0.61945-3.5058-0.55455-3.8885-0.06028-0.04007 0.05177-5.3e-4 0.34486 0.0054 0.43174 0.93432 0.68279 2.7374 0.69531 3.8357 0.0085l0.04733-0.37993h6e-6 -4e-6z" fill="#373737"/> <path d="m31.867 21.634 0.96675 0.28634c-4.8754 1.2505-17.769 2.5038-20.153 4.8368-0.718 0.71667-0.0345 3.9633-0.26326 5.939l-1.1335 0.0063c0.15587-1.9319-0.338-4.804 0.16934-5.915 0.55309-1.1324 2.8426-2.6066 20.414-5.1534z" fill="#72c482"/> <path transform="matrix(.99011,-.14027,.16669,.98601,0,0)" d="m5.1482 35.633h1.9868v3.2807h-1.9868z" fill="url(#f)"/> <path d="m34.31855,21.18392c3.58024-1.18603 7.29831-2.1927 11.69284-2.12597 .19646-.04671.52895.31171-.18898.33071-3.8727.15435-7.49924,1.21127-11.19678,2.00786-.46687.15759-.59085-.12651-.30709-.2126z" fill="#424345"/> <path d="m34.383 21.998c4.2384 0.916 8.507 2.0834 12.81 4.6698 0.22173 0.0679 0.33859 0.60295-0.38206 0.20912-3.918-2.0746-8.1259-3.1412-12.25-4.4985-0.55442-0.11663-0.50915-0.46062-0.17789-0.38042z" fill="#424345"/> <path d="m31.91695,21.32711c-4.18326-1.155-8.54181-2.17799-13.77285-2.40159-.23071-.04898-.64885.21126.20384.27124 4.59639.36423 8.84289,1.42088 13.19031,2.27781 .54532.15291.71076-.06212.3787-.14746z" fill="#424345"/> <path transform="matrix(.13363 0 0 .13363 -20.502 -20.925)" d="m254.56 408.9a11.617 11.617 0 1 1-23.234 0 11.617 11.617 0 1 1 23.234 0z" fill="url(#b)"/> <path d="m34.55672,21.66227c-.87189.62672-3.00622.60579-3.89927,0 0-.44183.87288-.79999 1.94964-.79999s1.94964.35817 1.94964.79999z" fill="url(#g)"/> <path d="m35.08 21.57c3.5802-1.186 7.2983-2.1927 11.693-2.126 0.19646-0.04672 0.52895 0.31171-0.18898 0.33071-3.8727 0.15435-7.4992 1.2113-11.197 2.0079-0.46687 0.15759-0.59085-0.12651-0.30709-0.2126z"/> <path d="m33.77828,22.31279c4.28436.93727 8.59833,2.12736 12.94132,4.74423 .22405.06912.34008.60748-.38741.20876-3.95551-2.10082-8.20839-3.18935-12.37551-4.56985-.56045-.1194-.51323-.46505-.17841-.38314z"/> <path d="m17.38852,18.81341c4.33166.36472 8.72017.92604 13.29329,2.60897 .22872.03492.4021.44896-.35961.19827-4.13421-1.31015-8.45133-1.79678-12.7157-2.52094-.56629-.04518-.55745-.32163-.21799-.2863z"/> </svg>